<?xml version="1.0" standalone="no"?>
<!DOCTYPE svg PUBLIC "-//W3C//DTD SVG 20010904//EN"
 "http://www.w3.org/TR/2001/REC-SVG-20010904/DTD/svg10.dtd">
<svg version="1.0" xmlns="http://www.w3.org/2000/svg"
 width="512.000000pt" height="512.000000pt" viewBox="0 0 512.000000 512.000000"
 preserveAspectRatio="xMidYMid meet">
<metadata>
Created by potrace 1.14, written by Peter Selinger 2001-2017
</metadata>
<g transform="translate(0.000000,512.000000) scale(0.100000,-0.100000)"
fill="#000000" stroke="none">
<path d="M1253 5083 c11 -74 49 -241 88 -380 21 -79 39 -149 39 -158 0 -19 -6
-18 485 -65 627 -59 1739 -160 2050 -185 126 -11 183 -19 190 -29 6 -7 20 -16
33 -20 12 -4 22 -14 22 -22 0 -8 3 -13 8 -13 19 3 22 -3 12 -21 -6 -11 -18
-20 -27 -20 -19 0 -9 -13 12 -16 8 -1 13 2 9 7 -3 5 0 9 6 9 15 0 25 -30 13
-39 -17 -11 -23 -41 -8 -41 8 0 19 -9 25 -19 15 -30 11 -39 -5 -11 -8 14 -14
21 -15 16 0 -5 9 -23 20 -41 17 -27 18 -34 6 -44 -10 -8 -21 -8 -40 -1 -39 14
-42 13 -20 -11 13 -15 15 -23 7 -26 -7 -2 -10 -10 -7 -17 6 -16 -23 -30 -31
-16 -4 6 -11 10 -16 10 -6 0 -4 -7 5 -15 8 -8 19 -15 25 -15 6 0 11 -6 12 -12
0 -7 5 2 10 20 5 17 13 32 17 32 5 0 18 -20 30 -45 20 -42 24 -45 64 -47 l43
-1 -37 -4 c-37 -4 -38 -5 -38 -44 0 -32 -3 -39 -20 -39 -17 0 -20 -7 -20 -40
0 -39 -1 -40 -32 -39 -18 0 -27 3 -20 6 6 2 12 16 12 29 0 24 -3 25 -47 22
-39 -2 -49 -7 -52 -23 -2 -11 -8 -24 -15 -28 -6 -4 11 -7 37 -5 37 2 44 1 32
-8 -8 -6 -15 -25 -15 -43 0 -31 -1 -31 -50 -31 -38 0 -50 -4 -50 -15 0 -8 -6
-25 -12 -36 -10 -17 -10 -23 0 -26 6 -3 12 -13 12 -24 0 -16 -7 -19 -40 -19
-33 0 -40 -3 -40 -20 0 -23 -10 -26 -28 -8 -9 9 -15 9 -24 0 -7 -7 -34 -12
-60 -12 -40 0 -48 -3 -48 -19 0 -13 -13 -24 -40 -35 -32 -13 -40 -21 -40 -41
0 -25 -1 -25 -78 -25 -66 0 -79 -3 -90 -20 -8 -13 -23 -20 -42 -20 -21 0 -30
-5 -30 -16 0 -12 -9 -14 -42 -12 -29 2 -42 7 -40 16 1 8 -2 11 -7 7 -6 -3 -8
-12 -5 -19 3 -8 1 -17 -4 -20 -6 -3 -9 7 -8 24 2 28 1 29 -16 13 -20 -18 -18
-23 45 -86 21 -21 43 -35 49 -31 6 4 8 3 5 -3 -4 -6 10 -25 31 -43 47 -41 252
-206 300 -243 22 -17 36 -35 34 -45 -4 -15 -93 -119 -213 -247 -65 -69 -48 -3
-140 -560 -68 -409 -79 -479 -87 -550 -4 -37 -12 -60 -19 -60 -7 0 -28 25 -46
55 -19 30 -80 129 -137 220 -95 152 -180 290 -307 496 -74 119 -99 154 -106
149 -4 -3 -5 -2 -2 1 2 4 0 15 -6 25 -12 23 -42 14 -34 -11 3 -10 0 -17 -9
-17 -10 0 -12 6 -7 21 5 12 6 28 4 36 -4 13 -3 13 6 0 5 -8 13 -11 17 -7 13
12 -100 162 -116 152 -4 -2 -22 11 -40 30 -18 19 -36 32 -41 30 -4 -3 -10 2
-13 11 -3 8 -10 12 -16 9 -5 -3 -10 -1 -10 4 0 13 -27 14 -35 2 -3 -5 0 -13 6
-17 8 -5 9 -3 4 6 -5 8 -3 11 4 9 7 -3 13 -9 13 -14 0 -18 21 -36 35 -31 7 3
13 -1 13 -8 0 -7 9 -21 20 -31 11 -10 20 -13 20 -7 0 7 4 12 9 12 5 0 7 -10 4
-23 -4 -17 -3 -19 6 -7 8 12 15 10 40 -14 16 -16 31 -38 33 -50 2 -11 8 -20
14 -19 5 1 11 -7 11 -18 1 -13 -2 -17 -10 -12 -7 4 -6 0 2 -10 7 -9 11 -24 7
-32 -10 -27 -25 -16 -29 23 -3 34 -4 34 -5 -10 -1 -26 3 -50 8 -53 6 -3 10
-15 10 -26 0 -10 7 -19 15 -19 8 0 15 -4 15 -9 0 -5 -7 -11 -15 -15 -22 -8
-18 -23 15 -54 29 -28 31 -46 4 -35 -8 3 -16 -2 -20 -10 -3 -9 -12 -13 -20
-10 -8 3 -14 0 -14 -6 0 -6 6 -11 14 -11 8 0 16 -7 20 -15 3 -8 1 -15 -4 -15
-6 0 -10 -35 -10 -80 0 -47 -4 -80 -10 -80 -5 0 -10 -18 -10 -40 0 -33 -3 -40
-20 -40 -17 0 -20 7 -20 40 0 22 -4 40 -10 40 -5 0 -10 -22 -10 -50 l0 -50
-40 0 c-38 0 -40 -2 -40 -30 0 -28 -2 -30 -40 -30 -37 0 -40 -2 -40 -27 l0
-26 -116 6 c-106 6 -117 5 -137 -13 -11 -11 -31 -20 -44 -20 -18 0 -23 -6 -23
-25 0 -26 -4 -29 -52 -39 -26 -6 -28 -10 -28 -56 l0 -50 -40 6 c-27 4 -40 3
-40 -5 0 -6 8 -11 17 -11 14 0 15 -2 4 -13 -11 -9 -14 -9 -18 1 -8 22 -72 14
-100 -12 -15 -14 -44 -28 -65 -31 -36 -6 -38 -8 -38 -45 l0 -39 58 -4 c36 -2
23 -4 -33 -4 -83 0 -145 -14 -145 -33 0 -4 11 -12 25 -18 15 -7 23 -17 19 -26
-7 -17 -32 -28 -46 -20 -6 4 -7 -9 -4 -33 l6 -38 -15 40 -14 40 5 -37 c3 -24
1 -38 -6 -38 -6 0 -9 4 -6 9 4 5 1 22 -4 37 -11 27 3 50 22 38 15 -9 8 17 -8
33 -13 14 -17 14 -25 2 -6 -10 -9 -10 -9 -1 0 6 -5 12 -10 12 -7 0 -9 -16 -6
-43 3 -23 5 -51 6 -62 0 -17 2 -18 11 -5 8 11 9 8 4 -13 -3 -16 -2 -27 2 -24
4 3 9 -11 10 -31 1 -20 7 -38 13 -40 5 -2 7 -8 4 -13 -3 -6 -1 -16 6 -24 9
-10 7 -15 -8 -19 -16 -5 -19 -17 -20 -79 -3 -112 -10 -139 -48 -180 -18 -21
-34 -40 -34 -42 0 -2 26 -2 58 0 115 9 172 17 178 26 3 5 39 9 80 9 84 0 399
37 423 49 9 5 52 11 96 15 44 4 166 18 270 31 176 22 425 49 690 75 61 6 187
20 280 30 94 11 240 27 325 35 85 9 169 18 185 20 17 2 62 7 100 10 39 3 156
15 260 26 105 11 225 22 267 26 43 3 75 9 72 14 -2 4 17 11 43 14 77 11 84 15
103 59 18 43 19 43 80 49 34 4 65 9 70 12 4 3 14 37 20 75 8 48 16 70 26 70
11 0 14 20 14 98 0 53 3 201 7 327 l6 230 -26 12 c-28 13 -37 48 -14 56 10 4
10 7 0 18 -7 7 -13 23 -13 36 0 16 -8 27 -24 33 -40 15 -49 42 -33 97 14 48
14 48 60 51 l47 3 0 98 c0 79 -3 100 -15 105 -19 7 -19 26 0 26 13 0 15 56 15
445 0 333 -3 445 -12 445 -6 0 -20 -8 -31 -18 -19 -17 -19 -16 -12 38 4 30 11
65 16 78 5 13 9 38 9 55 1 30 1 31 15 13 13 -18 15 69 15 732 l0 752 -1936 0
-1937 0 6 -37z m2977 -1154 c0 -5 -4 -9 -10 -9 -5 0 -10 7 -10 16 0 8 5 12 10
9 6 -3 10 -10 10 -16z m128 -11 c0 -7 4 -24 7 -38 6 -23 6 -23 -9 4 -9 15 -16
32 -16 37 0 14 17 11 18 -3z m32 -113 c0 -5 -5 -3 -10 5 -5 8 -10 20 -10 25 0
6 5 3 10 -5 5 -8 10 -19 10 -25z m-43 -27 c-3 -8 -6 -5 -6 6 -1 11 2 17 5 13
3 -3 4 -12 1 -19z m50 -20 c-3 -8 -6 -5 -6 6 -1 11 2 17 5 13 3 -3 4 -12 1
-19z m37 -113 c8 -32 13 -61 11 -63 -3 -4 -15 34 -31 103 -12 54 4 21 20 -40z
m-1949 -1073 c-8 -8 -25 10 -19 20 4 6 9 5 15 -3 4 -7 6 -15 4 -17z m45 -23
c6 -10 7 -19 2 -19 -5 0 -14 12 -20 26 -14 29 2 24 18 -7z m206 -454 c1 -8 -2
-13 -7 -9 -5 3 -9 12 -9 21 0 19 13 9 16 -12z m104 0 c0 -2 -10 -10 -22 -16
-21 -11 -22 -11 -9 4 13 16 31 23 31 12z m-23 -71 c-3 -3 -13 0 -21 9 -8 8
-12 18 -9 21 4 4 14 0 22 -9 8 -8 12 -17 8 -21z m-19 -12 c2 -7 -1 -12 -7 -12
-6 0 -10 -3 -10 -7 1 -5 1 -23 0 -40 -1 -34 -21 -48 -21 -15 0 10 -9 24 -20
32 -30 22 -26 42 8 34 24 -7 26 -6 13 9 -12 15 -11 17 10 14 12 -2 25 -9 27
-15z m42 -52 c0 -22 -4 -40 -10 -40 -5 0 -10 14 -10 30 0 17 -4 30 -10 30 -5
0 -10 5 -10 10 0 6 9 10 20 10 17 0 20 -7 20 -40z m65 10 c3 -5 1 -10 -4 -10
-6 0 -11 5 -11 10 0 6 2 10 4 10 3 0 8 -4 11 -10z m20 -30 c3 -5 1 -10 -4 -10
-6 0 -11 5 -11 10 0 6 2 10 4 10 3 0 8 -4 11 -10z m-21 -69 c3 -5 0 -11 -8
-14 -8 -3 -17 1 -20 9 -6 15 19 20 28 5z m-157 -37 c-3 -3 -12 -4 -19 -1 -8 3
-5 6 6 6 11 1 17 -2 13 -5z m53 -24 c0 -5 -4 -10 -9 -10 -6 0 -13 5 -16 10 -3
6 1 10 9 10 9 0 16 -4 16 -10z m-55 -20 c3 -5 -1 -10 -9 -10 -9 0 -16 5 -16
10 0 6 4 10 9 10 6 0 13 -4 16 -10z m155 -20 c0 -5 -7 -10 -15 -10 -8 0 -15 5
-15 10 0 6 7 10 15 10 8 0 15 -4 15 -10z m-103 -6 c-3 -3 -12 -4 -19 -1 -8 3
-5 6 6 6 11 1 17 -2 13 -5z m303 -72 c0 -5 -7 -9 -15 -9 -8 0 -12 4 -9 9 3 4
9 8 15 8 5 0 9 -4 9 -8z m-497 -113 c7 0 3 -4 -8 -9 -29 -13 -35 -12 -35 6 0
11 5 14 16 10 9 -3 21 -6 27 -7z m-403 -69 c0 -5 -9 -10 -20 -10 -11 0 -20 5
-20 10 0 6 9 10 20 10 11 0 20 -4 20 -10z m227 4 c-3 -3 -12 -4 -19 -1 -8 3
-5 6 6 6 11 1 17 -2 13 -5z m-427 -44 c0 -5 -7 -10 -16 -10 -8 0 -12 5 -9 10
3 6 10 10 16 10 5 0 9 -4 9 -10z m448 -26 c10 -11 9 -15 -7 -24 -32 -16 -41
-12 -41 20 0 24 3 28 18 23 9 -4 23 -13 30 -19z m-465 -4 c9 0 17 -4 17 -10 0
-5 -18 -10 -40 -10 -30 0 -40 4 -40 16 0 12 6 15 23 10 12 -3 30 -6 40 -6z
m-180 -157 c-24 -2 -62 -2 -85 0 -24 2 -5 4 42 4 47 0 66 -2 43 -4z m470 -120
c-7 -3 -14 -14 -14 -26 -1 -18 -2 -19 -6 -4 -5 19 16 52 26 41 3 -4 0 -9 -6
-11z m-438 -87 c30 -13 35 -20 35 -47 0 -45 -21 -162 -30 -173 -12 -12 -90
-25 -90 -15 0 5 12 43 26 86 17 49 25 92 22 120 -2 24 -2 43 0 43 1 0 18 -7
37 -14z"/>
<path d="M4080 4259 c0 -5 5 -7 10 -4 6 3 10 8 10 11 0 2 -4 4 -10 4 -5 0 -10
-5 -10 -11z"/>
<path d="M4137 4117 c4 -22 4 -22 -11 -3 -9 11 -16 15 -16 10 0 -6 4 -14 9
-19 5 -6 11 -19 13 -30 2 -14 6 -10 14 17 9 29 9 38 -1 42 -9 3 -11 -2 -8 -17z"/>
<path d="M4046 4106 c3 -9 13 -16 22 -16 8 0 13 1 11 3 -2 1 -12 9 -22 16 -15
12 -17 12 -11 -3z"/>
<path d="M4003 4089 c-2 -23 3 -25 10 -4 4 8 3 16 -1 19 -4 3 -9 -4 -9 -15z"/>
<path d="M4007 4032 c3 -12 9 -25 14 -28 14 -8 11 10 -6 32 -13 18 -14 18 -8
-4z"/>
<path d="M4116 4015 c4 -8 8 -15 10 -15 2 0 4 7 4 15 0 8 -4 15 -10 15 -5 0
-7 -7 -4 -15z"/>
<path d="M4100 3964 c0 -8 5 -12 10 -9 6 4 8 11 5 16 -9 14 -15 11 -15 -7z"/>
<path d="M4060 3775 c0 -8 5 -15 10 -15 6 0 10 7 10 15 0 8 -4 15 -10 15 -5 0
-10 -7 -10 -15z"/>
<path d="M2869 3493 l-24 -28 28 24 c25 23 32 31 24 31 -2 0 -14 -12 -28 -27z"/>
<path d="M2990 3475 c13 -14 26 -25 28 -25 3 0 -5 11 -18 25 -13 14 -26 25
-28 25 -3 0 5 -11 18 -25z"/>
<path d="M2850 3425 c-41 -35 -74 -68 -72 -75 2 -7 -3 -10 -11 -7 -19 7 -73
-48 -58 -58 7 -4 10 -1 9 7 -2 7 2 12 7 11 6 -1 33 16 60 38 28 22 71 56 98
75 26 20 45 39 42 43 -2 4 1 8 8 7 12 0 45 -30 49 -43 3 -12 137 -121 247
-202 56 -41 99 -76 97 -78 -2 -3 9 -23 25 -46 70 -101 139 -206 139 -212 0 -4
8 -14 18 -22 9 -8 12 -12 6 -9 -8 4 -16 -18 -24 -62 -26 -137 -88 -290 -113
-275 -5 3 -7 1 -4 -4 4 -6 0 -16 -8 -23 -17 -14 -20 -35 -4 -24 21 13 -72
-100 -143 -173 l-69 -72 -104 70 c-97 64 -142 89 -189 103 -16 5 -16 9 -5 24
13 15 12 16 -3 4 -20 -16 -25 -13 -91 41 -26 22 -49 38 -52 35 -6 -6 122 -106
233 -181 48 -33 112 -79 142 -102 96 -73 90 -73 152 -2 79 91 161 197 151 197
-9 0 -15 -7 -78 -85 -80 -99 -135 -159 -135 -147 0 5 10 17 21 28 12 10 59 69
105 130 46 62 106 136 134 165 27 29 50 56 50 60 0 4 5 9 10 11 11 3 80 248
80 283 0 12 -31 50 -77 95 -42 41 -97 107 -122 146 -50 77 -118 143 -226 219
-39 27 -99 74 -135 105 -36 31 -69 59 -75 62 -5 3 -44 -23 -85 -57z m59 22
c-2 -1 -13 -9 -24 -17 -19 -14 -19 -14 -6 3 7 9 18 17 24 17 6 0 8 -1 6 -3z
m-49 -30 c0 -2 -11 -14 -25 -27 -14 -13 -25 -21 -25 -17 0 3 10 15 22 27 21
19 28 24 28 17z m121 -1104 c13 -16 12 -17 -3 -4 -17 13 -22 21 -14 21 2 0 10
-8 17 -17z"/>
<path d="M3100 3455 c-7 -9 -9 -15 -3 -13 5 2 38 -30 72 -69 35 -40 65 -73 67
-73 3 0 -23 37 -57 83 -34 45 -63 83 -64 85 -1 1 -8 -5 -15 -13z"/>
<path d="M3033 3444 c3 -6 41 -39 84 -74 43 -35 67 -52 54 -37 -27 29 -149
127 -138 111z"/>
<path d="M3210 3388 c19 -26 36 -46 38 -43 3 3 -2 13 -11 23 -19 20 -23 37 -7
27 6 -4 7 1 3 11 -4 12 -8 14 -11 5 -3 -9 -10 -7 -24 6 -12 10 -6 -3 12 -29z"/>
<path d="M3666 3391 c-4 -7 -5 -15 -2 -18 9 -9 19 4 14 18 -4 11 -6 11 -12 0z"/>
<path d="M2905 3335 c-16 -14 -36 -25 -42 -25 -7 0 -13 -6 -13 -14 0 -9 -7
-12 -20 -9 -15 4 -18 1 -15 -16 3 -14 -1 -21 -12 -21 -9 0 -13 6 -9 15 8 21 4
19 -40 -16 -22 -17 -38 -36 -36 -41 2 -6 -4 -8 -13 -4 -13 5 -14 2 -5 -15 13
-23 34 -15 27 11 -3 13 0 17 9 13 9 -3 14 2 14 13 0 16 2 16 9 5 7 -10 4 -19
-7 -29 -9 -7 -12 -11 -6 -8 7 3 14 -4 18 -17 l5 -22 22 22 c18 18 20 25 10 37
-15 18 5 34 22 17 8 -8 8 -11 -1 -11 -6 0 -9 -7 -6 -15 4 -8 10 -15 16 -15 5
0 6 5 3 10 -3 6 -1 10 4 10 6 0 11 -5 11 -12 0 -9 3 -9 12 0 7 7 17 12 23 12
5 0 2 -5 -8 -11 -15 -9 -16 -13 -5 -27 12 -15 11 -16 -4 -3 -10 7 -19 11 -19
7 -2 -10 -6 -25 -9 -33 -1 -5 -2 -10 -2 -13 0 -3 -20 -5 -44 -5 -50 2 -62 -8
-42 -33 11 -15 11 -15 -3 -5 -13 10 -19 10 -35 -2 -23 -17 -34 -19 -34 -4 0 5
4 8 9 5 5 -3 23 8 40 26 23 23 28 34 19 40 -7 4 -14 3 -16 -1 -2 -5 -14 2 -28
16 -20 20 -28 22 -39 13 -13 -10 -12 -16 1 -41 17 -34 12 -48 -16 -46 -10 1
-17 5 -14 9 3 4 10 6 17 4 7 -1 9 -1 4 1 -4 3 -5 8 -2 13 3 4 -3 14 -13 21
-14 11 -15 11 -5 -1 10 -11 9 -18 -5 -33 -12 -15 -14 -21 -4 -24 6 -3 12 -9
12 -14 0 -4 -6 -6 -14 -3 -17 6 -31 -12 -16 -21 6 -4 8 -11 5 -16 -4 -5 -1 -9
4 -9 6 0 11 8 11 18 0 14 2 15 10 2 6 -10 6 -16 0 -18 -6 -2 -7 -9 -3 -15 11
-18 12 -37 3 -37 -5 0 -11 6 -13 13 -4 9 -6 9 -6 -1 -1 -10 -6 -10 -21 -2 -16
9 -20 8 -20 -5 0 -9 5 -13 10 -10 6 3 10 2 10 -4 0 -5 -8 -12 -17 -14 -16 -4
-16 -5 1 -6 15 -1 16 -4 6 -16 -11 -13 -8 -15 19 -16 17 -1 37 -2 44 -3 6 -1
11 7 11 17 -1 9 2 17 7 17 5 0 9 -6 9 -14 0 -14 33 -24 61 -18 9 1 26 27 38
57 24 58 84 120 126 131 31 8 31 16 -1 103 -19 52 -23 74 -16 88 9 15 11 13
10 -14 -1 -18 7 -43 16 -57 9 -15 13 -26 9 -26 -4 0 2 -6 13 -14 17 -13 20
-12 36 17 9 18 17 40 18 50 0 10 8 17 21 17 16 0 20 4 15 18 -5 15 -4 14 9 -2
16 -21 11 -38 -8 -30 -8 3 -20 -15 -32 -48 -11 -29 -21 -55 -23 -59 -1 -3 30
-26 70 -50 40 -23 83 -52 95 -63 34 -33 93 -138 93 -166 -1 -21 -3 -19 -14 12
-15 42 -72 123 -110 155 -45 40 -113 65 -154 57 -105 -19 -168 -91 -176 -203
-2 -25 7 -47 33 -86 89 -129 208 -182 306 -135 25 12 57 37 71 56 15 19 30 31
35 28 5 -3 7 1 4 8 -2 7 -1 29 4 48 8 33 8 32 9 -17 0 -70 -41 -137 -101 -163
-66 -29 -156 -20 -221 21 -28 18 -60 32 -71 31 -12 -1 -15 2 -8 6 11 7 -20 65
-57 109 -6 7 -13 31 -15 54 -2 23 -5 43 -7 44 -3 3 -170 7 -205 6 -7 -1 -13
-5 -13 -11 0 -5 7 -6 17 -3 12 5 14 3 8 -8 -8 -12 -6 -12 8 0 14 11 18 11 23
-3 3 -9 11 -13 18 -9 12 7 -23 -38 -39 -49 -5 -4 4 -6 21 -4 31 4 41 -11 21
-30 -12 -13 -7 -24 8 -18 11 5 13 2 9 -10 -3 -9 -10 -13 -15 -10 -5 3 -5 -5 0
-18 6 -15 15 -22 27 -20 16 2 17 1 4 -8 -13 -9 -10 -15 19 -39 22 -19 31 -34
26 -43 -5 -7 -5 -10 -1 -6 8 7 82 -70 74 -77 -3 -3 -18 7 -34 21 -16 15 -44
40 -63 58 -19 17 -9 1 22 -35 32 -37 71 -72 87 -79 17 -7 30 -17 30 -23 0 -6
3 -7 7 -4 3 4 13 1 21 -5 8 -7 22 -17 32 -23 9 -5 35 -22 56 -36 47 -30 118
-58 159 -61 19 -1 56 12 99 35 38 20 73 34 77 31 5 -3 6 2 3 10 -3 8 3 19 14
25 11 6 31 28 43 48 13 21 27 41 32 44 5 4 10 18 10 32 1 14 6 23 11 19 5 -3
7 2 3 10 -3 9 0 21 6 27 7 7 12 15 13 19 2 33 18 72 29 72 8 0 11 -7 8 -20 -3
-11 -9 -17 -14 -14 -5 3 -6 -2 -3 -10 4 -10 1 -16 -7 -16 -7 0 -10 -3 -7 -6 4
-3 2 -19 -3 -37 -16 -56 8 -13 41 73 44 116 49 173 19 225 -54 92 -132 193
-181 234 l-53 44 42 -44 c29 -30 40 -48 34 -58 -6 -9 -11 -10 -15 -2 -4 6 -4
11 0 11 4 0 -1 9 -11 20 -10 11 -22 17 -28 13 -5 -3 -7 -1 -4 4 8 13 -27 46
-38 36 -4 -5 -5 -3 -1 4 7 13 -89 89 -159 125 -22 11 -53 31 -68 44 -35 29
-35 29 -72 -1z m79 -25 c20 0 15 -28 -6 -33 -10 -3 -15 -1 -12 5 4 6 -6 8 -26
5 -31 -5 -31 -5 -14 14 10 11 24 17 32 14 7 -3 19 -5 26 -5z m-140 -56 c3 -8
2 -12 -4 -9 -6 3 -10 10 -10 16 0 14 7 11 14 -7z m256 -14 c0 -5 -2 -10 -4
-10 -3 0 -8 5 -11 10 -3 6 -1 10 4 10 6 0 11 -4 11 -10z m36 -39 c23 19 16 4
-8 -17 -12 -10 -18 -13 -13 -5 6 11 4 13 -10 7 -16 -6 -16 -4 -4 10 9 11 15
12 17 5 3 -9 7 -9 18 0z m-434 -49 c7 -7 8 -12 4 -12 -5 0 -2 -8 5 -17 7 -10
-1 -5 -19 11 -18 17 -32 31 -32 32 0 7 32 -4 42 -14z m415 -7 c0 -8 -4 -12 -9
-9 -5 3 -6 10 -3 15 9 13 12 11 12 -6z m-323 -44 c3 -5 -1 -11 -9 -14 -9 -4
-12 -1 -8 9 6 16 10 17 17 5z m536 -34 c0 -7 11 -24 24 -39 14 -14 22 -28 20
-31 -8 -8 16 -48 25 -42 5 2 15 -3 22 -12 12 -15 12 -16 -1 -8 -26 16 -38 14
-44 -8 -3 -12 -3 -23 -1 -26 3 -2 5 1 5 7 0 7 5 12 12 12 6 0 8 -3 5 -6 -3 -4
-2 -16 4 -28 9 -18 8 -19 -3 -5 -8 10 -24 14 -43 12 -29 -4 -29 -4 -10 11 11
8 17 16 13 16 -4 0 -3 11 2 25 8 20 4 32 -23 67 -18 24 -31 51 -29 61 4 19 22
14 22 -6z m-590 -11 c0 -6 4 -5 9 3 6 9 11 10 15 2 4 -6 3 -11 -3 -11 -5 0 -8
-9 -6 -20 2 -13 -2 -20 -11 -20 -9 0 -12 -5 -8 -12 4 -7 4 -10 -1 -6 -4 4 -15
2 -24 -4 -9 -7 -13 -9 -9 -4 4 5 1 18 -7 29 -13 18 -13 23 3 37 19 19 42 22
42 6z m304 -17 c62 -23 118 -79 137 -136 6 -19 9 -64 7 -99 -3 -50 -9 -69 -28
-90 -73 -78 -184 -72 -274 14 -78 75 -106 182 -65 248 49 80 123 101 223 63z
m231 -149 c3 -6 -1 -7 -9 -4 -18 7 -21 14 -7 14 6 0 13 -4 16 -10z m40 0 c-3
-5 -12 -10 -18 -10 -7 0 -6 4 3 10 19 12 23 12 15 0z m-679 -55 c-11 -8 -25
-15 -30 -15 -6 1 0 7 14 15 32 19 40 18 16 0z m44 -19 c0 -2 -9 -6 -20 -9 -11
-3 -18 -1 -14 4 5 9 34 13 34 5z m765 -43 c-3 -50 -5 -52 -21 -46 -13 5 -13 7
-2 14 7 5 9 9 3 9 -5 0 -3 5 5 10 12 8 12 10 1 10 -11 0 -11 3 -1 15 17 20 17
19 15 -12z m-775 -37 c0 -2 -7 -7 -16 -10 -8 -3 -12 -2 -9 4 6 10 25 14 25 6z
m35 -14 c-3 -3 -11 0 -18 7 -9 10 -8 11 6 5 10 -3 15 -9 12 -12z m90 -42 c-3
-5 -12 -10 -18 -10 -7 0 -6 4 3 10 19 12 23 12 15 0z m109 -49 c3 -5 -2 -15
-12 -22 -15 -12 -16 -12 -5 2 7 9 10 19 6 22 -3 4 -4 7 0 7 3 0 8 -4 11 -9z
m60 -49 c2 -4 -4 -8 -14 -8 -10 0 -16 4 -14 8 3 4 9 8 14 8 5 0 11 -4 14 -8z
m120 -25 c-5 -14 -54 -22 -54 -8 0 11 18 19 42 20 10 1 15 -4 12 -12z m8 -67
c3 -16 1 -30 -4 -30 -4 0 -8 6 -8 14 0 8 -3 21 -6 30 -3 9 -2 16 4 16 5 0 12
-13 14 -30z m-232 -4 c0 -3 -4 -8 -10 -11 -5 -3 -10 -1 -10 4 0 6 5 11 10 11
6 0 10 -2 10 -4z m25 -15 c3 -5 2 -12 -3 -15 -5 -3 -9 1 -9 9 0 17 3 19 12 6z
m223 -91 c0 -22 -1 -22 -8 5 -4 17 -8 39 -8 50 0 16 2 15 8 -5 4 -14 8 -36 8
-50z"/>
<path d="M2703 3043 c-10 -3 -10 -10 -2 -25 10 -19 12 -19 30 -2 28 25 10 43
-28 27z"/>
<path d="M2929 3001 c-21 -17 -24 -27 -24 -93 0 -107 44 -189 91 -171 8 3 13
11 10 19 -10 27 19 20 31 -8 14 -33 35 -36 64 -7 18 18 21 29 16 69 -8 63 -50
166 -79 190 -39 32 -46 26 -36 -32 15 -95 16 -96 46 -100 l27 -4 -28 -14 c-20
-9 -27 -19 -24 -32 7 -27 -12 -22 -23 6 -5 13 -18 27 -29 31 -26 8 -28 23 -3
21 12 -1 16 5 14 19 -1 11 -3 44 -4 73 -1 57 -11 64 -49 33z"/>
<path d="M3265 3332 c4 -35 20 -62 38 -62 6 0 1 10 -11 23 -12 13 -19 26 -16
29 3 4 1 15 -5 25 -8 15 -9 12 -6 -15z"/>
<path d="M2666 3271 c-3 -5 2 -15 12 -22 15 -12 16 -12 5 2 -7 9 -10 19 -6 22
3 4 4 7 0 7 -3 0 -8 -4 -11 -9z"/>
<path d="M2627 3192 c-15 -16 -27 -32 -27 -36 0 -5 14 6 30 24 17 18 29 34 27
36 -2 2 -16 -9 -30 -24z"/>
<path d="M2793 3168 c-15 -17 -17 -17 -35 -1 -14 12 -21 14 -28 5 -6 -7 -7
-10 -4 -7 10 7 45 -15 40 -24 -3 -4 5 -7 17 -7 26 2 70 25 48 26 -11 0 -11 3
3 13 16 12 16 13 -4 13 -11 0 -28 -8 -37 -18z m23 -5 c-2 -9 -11 -17 -20 -19
-17 -2 -17 -2 0 17 21 23 23 23 20 2z"/>
<path d="M2494 3117 c-45 -53 -45 -53 -17 -55 19 -1 24 2 19 14 -3 8 -2 13 3
10 7 -4 31 34 31 49 0 12 -18 3 -36 -18z"/>
<path d="M3370 3134 c0 -19 60 -94 148 -186 l86 -89 -31 -97 c-47 -147 -48
-152 -2 -82 23 36 45 67 48 70 3 3 19 22 34 43 15 20 34 37 42 37 8 0 -14 -37
-51 -86 -35 -48 -64 -89 -64 -93 1 -3 37 32 80 79 73 78 94 110 72 110 -5 0
-41 27 -80 59 -66 56 -84 65 -78 38 2 -7 1 -9 -1 -4 -3 4 -10 4 -16 1 -8 -5
-8 -2 1 7 6 7 12 16 12 20 0 4 -42 42 -92 85 -51 43 -96 83 -100 88 -5 8 -8 8
-8 0z m115 -103 c3 -5 2 -12 -3 -15 -5 -3 -9 1 -9 9 0 17 3 19 12 6z m52 -63
c-3 -8 -6 -5 -6 6 -1 11 2 17 5 13 3 -3 4 -12 1 -19z m90 -80 c1 -10 -3 -21
-9 -24 -7 -5 -8 -2 -4 5 5 7 1 17 -9 25 -15 11 -15 12 2 12 11 0 20 -8 20 -18z"/>
<path d="M2595 3104 c-9 -14 -15 -27 -13 -30 2 -2 12 10 22 26 21 37 15 40 -9
4z"/>
<path d="M2950 3116 c0 -9 7 -16 16 -16 9 0 14 5 12 12 -6 18 -28 21 -28 4z"/>
<path d="M2542 3098 c-20 -26 -39 -73 -34 -87 3 -9 0 -11 -8 -6 -9 5 -11 4 -6
-3 4 -7 9 -12 11 -12 8 0 34 57 29 63 -3 3 2 17 11 31 18 27 16 36 -3 14z"/>
<path d="M2415 3040 c-3 -6 1 -7 9 -4 18 7 21 14 7 14 -6 0 -13 -4 -16 -10z"/>
<path d="M2460 3025 c-5 -14 -14 -25 -20 -25 -6 0 -8 -5 -5 -10 9 -15 22 -4
33 30 13 36 6 41 -8 5z"/>
<path d="M2596 2999 c2 -4 13 -7 24 -6 10 1 17 4 14 8 -2 4 -13 7 -24 6 -10
-1 -17 -4 -14 -8z"/>
<path d="M2536 2954 c-9 -26 -14 -49 -12 -51 2 -2 11 17 20 43 9 26 14 49 12
51 -2 2 -11 -17 -20 -43z"/>
<path d="M1066 2920 c2 -14 9 -47 14 -75 5 -27 20 -93 35 -145 14 -52 43 -162
65 -245 21 -82 55 -211 75 -285 19 -74 47 -182 61 -240 35 -146 82 -318 83
-300 1 14 -28 127 -243 975 -42 165 -81 309 -86 320 -8 17 -9 17 -4 -5z"/>
<path d="M2461 2931 c-8 -5 -9 -11 -3 -15 5 -3 12 1 16 9 6 17 6 18 -13 6z"/>
<path d="M2425 2901 c-3 -5 -1 -12 5 -16 5 -3 7 -20 5 -38 -4 -24 1 -39 19
-59 13 -16 29 -28 35 -28 7 0 9 -5 6 -10 -4 -6 7 -32 24 -58 50 -77 98 -124
140 -137 23 -7 22 -5 -10 40 -19 26 -45 57 -59 69 -36 31 -73 83 -108 153 -18
34 -36 64 -42 68 -6 3 -8 11 -5 16 4 5 4 9 1 9 -3 0 -7 -4 -11 -9z m162 -266
c0 -8 -4 -12 -9 -9 -5 3 -6 10 -3 15 9 13 12 11 12 -6z"/>
<path d="M2390 2873 c0 -6 8 -17 18 -24 16 -13 16 -13 2 6 -8 11 -16 22 -17
24 -2 2 -3 0 -3 -6z"/>
<path d="M2505 2869 c-4 -6 1 -17 11 -25 11 -9 14 -13 7 -10 -6 4 -4 -8 6 -26
25 -50 103 -169 107 -165 2 2 -10 29 -26 59 -26 49 -28 57 -15 68 8 7 15 18
15 24 0 6 -9 0 -19 -13 l-18 -23 -14 33 c-14 33 -15 39 -18 59 0 6 -7 9 -13 8
-7 -2 -12 3 -10 10 3 15 -4 16 -13 1z"/>
<path d="M2575 2852 c-10 -7 -18 -32 -10 -32 2 0 9 9 15 20 12 22 11 24 -5 12z"/>
<path d="M2310 2726 c0 -2 8 -10 18 -17 15 -13 16 -12 3 4 -13 16 -21 21 -21
13z"/>
<path d="M2375 2671 c-3 -5 -1 -12 5 -16 5 -3 10 -3 10 1 0 4 10 -1 23 -12 20
-17 20 -16 -2 9 -28 30 -28 31 -36 18z"/>
<path d="M2470 2676 c0 -2 7 -9 15 -16 9 -7 15 -8 15 -2 0 5 -7 12 -15 16 -8
3 -15 4 -15 2z"/>
<path d="M3410 2455 c-19 -19 -30 -35 -24 -35 5 0 22 16 37 35 36 45 30 45
-13 0z"/>
<path d="M3460 2450 c-8 -10 -42 -51 -75 -92 -33 -40 -87 -105 -121 -144 -33
-39 -68 -81 -77 -94 l-16 -23 -40 33 c-23 17 -38 37 -35 42 4 7 2 8 -4 4 -6
-4 -64 32 -129 80 -234 173 -265 196 -268 192 -4 -3 134 -230 168 -278 21 -30
91 -141 213 -340 75 -123 219 -348 229 -358 5 -6 32 130 79 403 70 412 98 586
94 590 -1 1 -10 -5 -18 -15z m-49 -143 c-17 -34 -53 -91 -81 -127 -51 -66
-127 -177 -134 -195 -2 -5 -12 -1 -22 10 -16 18 -113 101 -194 168 -14 11 -40
33 -58 49 -18 16 -38 26 -43 22 -5 -3 -8 -1 -7 4 2 5 -21 32 -51 60 -30 28
-52 54 -48 58 5 6 74 -46 132 -99 11 -11 47 -40 80 -65 33 -25 62 -49 65 -52
17 -19 115 -90 124 -90 17 0 174 184 213 249 18 31 31 61 28 69 -2 7 0 10 5 7
6 -3 10 0 11 7 0 10 2 10 6 0 2 -7 -9 -40 -26 -75z m-551 -88 c0 -5 -4 -9 -10
-9 -5 0 -10 7 -10 16 0 8 5 12 10 9 6 -3 10 -10 10 -16z m60 -34 c-7 -8 -17
-15 -22 -15 -11 0 14 29 26 30 5 0 3 -7 -4 -15z"/>
<path d="M3302 2425 c-30 -38 -182 -131 -182 -112 0 6 -3 7 -7 4 -3 -4 -13 -1
-21 6 -13 9 -14 9 -8 0 10 -17 6 -16 -49 7 -25 11 -44 16 -41 11 3 -5 19 -14
36 -21 16 -7 30 -16 30 -21 0 -5 16 -9 36 -9 38 0 134 45 134 63 0 6 3 7 6 4
4 -3 16 1 28 11 34 27 89 92 78 92 -6 0 -24 -16 -40 -35z"/>
<path d="M0 2330 c0 -98 2 -110 18 -110 9 0 75 5 147 12 96 8 124 14 108 21
-11 5 -23 22 -27 37 -4 22 -14 31 -43 40 -21 7 -60 34 -86 61 -39 40 -55 49
-83 49 l-34 0 0 -110z"/>
<path d="M2870 2416 c0 -2 8 -10 18 -17 15 -13 16 -12 3 4 -13 16 -21 21 -21
13z"/>
<path d="M308 2243 c7 -3 16 -2 19 1 4 3 -2 6 -13 5 -11 0 -14 -3 -6 -6z"/>
<path d="M3130 2146 c0 -2 7 -7 16 -10 8 -3 12 -2 9 4 -6 10 -25 14 -25 6z"/>
<path d="M1401 1594 c0 -11 3 -14 6 -6 3 7 2 16 -1 19 -3 4 -6 -2 -5 -13z"/>
<path d="M1411 1554 c0 -11 3 -14 6 -6 3 7 2 16 -1 19 -3 4 -6 -2 -5 -13z"/>
<path d="M1491 1453 c-1 -17 16 -25 25 -12 4 7 3 9 -4 5 -5 -3 -13 0 -15 6 -4
9 -6 10 -6 1z"/>
<path d="M1550 1384 c0 -14 4 -23 10 -19 6 3 10 15 10 26 0 10 -4 19 -10 19
-5 0 -10 -12 -10 -26z"/>
<path d="M1498 1382 c-4 -12 -2 -20 3 -16 5 3 9 0 9 -6 0 -6 5 -8 11 -4 7 4 7
9 2 13 -6 3 -12 13 -15 21 -3 10 -6 8 -10 -8z"/>
</g>
</svg>
